<?xml version="1.0" standalone="no"?>
<!DOCTYPE svg PUBLIC "-//W3C//DTD SVG 20010904//EN"
 "http://www.w3.org/TR/2001/REC-SVG-20010904/DTD/svg10.dtd">
<svg version="1.0" xmlns="http://www.w3.org/2000/svg"
 width="225.000000pt" height="225.000000pt" viewBox="0 0 225.000000 225.000000"
 preserveAspectRatio="xMidYMid meet">
<metadata>
Created by potrace 1.16, written by Peter Selinger 2001-2019
</metadata>
<g transform="translate(0.000000,225.000000) scale(0.100000,-0.100000)"
fill="#000000" stroke="none">
<path d="M718 2069 c-59 -30 -78 -79 -78 -194 l0 -95 -303 0 c-284 0 -305 -1
-321 -19 -15 -17 -16 -71 -14 -692 l3 -674 26 -56 c31 -66 83 -119 147 -151
l47 -23 900 0 900 0 50 27 c64 34 118 90 147 153 l23 50 3 674 c2 621 1 675
-14 692 -16 18 -37 19 -321 19 l-303 0 0 92 c0 114 -22 168 -81 198 -36 19
-60 20 -406 20 -347 -1 -370 -2 -405 -21z m784 -86 c15 -13 18 -32 18 -110 l0
-93 -395 0 -395 0 0 92 c0 139 -34 128 393 128 321 0 362 -2 379 -17z m-1122
-1063 c0 -28 -2 -30 -39 -30 -58 0 -71 -24 -71 -132 0 -47 4 -98 10 -112 8
-23 15 -26 55 -26 l45 0 0 -46 c0 -44 4 -50 72 -120 44 -46 79 -74 92 -74 13
0 48 27 88 68 63 63 67 70 70 117 3 48 4 50 33 53 79 7 75 -1 75 130 0 78 -4
122 -12 130 -7 7 -32 12 -56 12 -41 0 -43 1 -40 28 l3 27 420 0 420 0 3 -27
c3 -27 1 -28 -40 -28 -24 0 -49 -5 -56 -12 -8 -8 -12 -52 -12 -130 0 -131 -4
-123 75 -130 29 -3 30 -5 33 -53 3 -47 7 -54 70 -117 40 -41 75 -68 88 -68 13
0 48 28 92 74 68 70 72 76 72 120 l0 46 45 0 c40 0 47 3 55 26 6 14 10 65 10
112 0 108 -13 132 -71 132 -37 0 -39 2 -39 30 l0 30 145 0 145 0 0 -265 c0
-289 -3 -310 -58 -369 -15 -16 -45 -37 -67 -47 -38 -18 -84 -19 -910 -19 -826
0 -872 1 -910 19 -22 10 -52 31 -67 47 -55 59 -58 80 -58 369 l0 265 145 0
145 0 0 -30z m348 -167 l-3 -48 -180 0 -180 0 -3 48 -3 47 186 0 186 0 -3 -47z
m1160 0 l-3 -48 -180 0 -180 0 -3 48 -3 47 186 0 186 0 -3 -47z"/>
</g>
</svg>
