<?xml version="1.0" standalone="no"?>
<!DOCTYPE svg PUBLIC "-//W3C//DTD SVG 20010904//EN"
 "http://www.w3.org/TR/2001/REC-SVG-20010904/DTD/svg10.dtd">
<svg version="1.0" xmlns="http://www.w3.org/2000/svg"
 width="700.000000pt" height="467.000000pt" viewBox="0 0 700.000000 467.000000"
 preserveAspectRatio="xMidYMid meet">
<metadata>
Created by potrace 1.16, written by Peter Selinger 2001-2019
</metadata>
<g transform="translate(0.000000,467.000000) scale(0.100000,-0.100000)"
fill="#000000" stroke="none">
<path d="M0 2335 l0 -2335 3500 0 3500 0 0 2335 0 2335 -3500 0 -3500 0 0
-2335z m4124 979 c37 -37 36 -86 -4 -125 l-29 -30 -336 3 -337 3 -24 28 c-31
37 -31 78 2 116 l26 31 338 0 337 0 27 -26z m177 -263 c20 -20 29 -39 29 -61
0 -22 -9 -41 -29 -61 l-29 -29 -335 0 -334 0 -27 26 c-37 37 -35 86 3 125 l29
29 332 0 332 0 29 -29z m-32 -242 c31 -11 61 -52 61 -84 0 -36 -30 -74 -68
-84 -60 -17 -615 -14 -657 3 -74 31 -76 129 -2 161 41 18 616 21 666 4z m-54
-284 c38 -37 35 -95 -6 -129 l-31 -27 -334 3 c-331 3 -334 3 -356 26 -34 33
-31 97 5 128 l28 24 335 0 335 0 24 -25z m-174 -264 c37 -37 38 -79 3 -120
l-26 -31 -338 0 -338 0 -26 31 c-35 41 -34 83 3 120 l29 29 332 0 332 0 29
-29z m-1156 -180 c81 -38 144 -96 183 -169 130 -243 -7 -528 -281 -583 -158
-32 -340 68 -415 228 -24 52 -27 70 -27 163 0 93 3 112 27 162 31 66 105 149
163 183 105 62 239 68 350 16z m1071 -84 c32 -37 32 -87 0 -124 l-24 -28 -336
0 -336 0 -27 27 c-49 49 -25 138 41 151 11 3 164 4 339 3 l319 -1 24 -28z
m383 -34 c42 -41 291 -486 291 -523 0 -66 -82 -110 -132 -70 -15 12 -88 128
-163 259 -138 244 -153 284 -122 323 35 44 86 49 126 11z m-216 -223 c31 -25
42 -65 26 -102 -23 -56 -38 -58 -384 -58 -322 0 -344 2 -372 39 -22 28 -16 89
12 116 l24 25 334 0 c318 0 336 -1 360 -20z m-14 -255 c56 -29 63 -106 14
-145 -24 -19 -42 -20 -360 -20 l-334 0 -24 25 c-38 37 -35 95 6 129 l31 26
319 0 c260 0 325 -3 348 -15z"/>
<path d="M2710 1987 c0 -28 -5 -36 -35 -50 -45 -21 -68 -59 -68 -110 0 -59 16
-83 73 -109 l50 -23 0 -72 c0 -40 -4 -73 -9 -73 -4 0 -20 9 -34 20 -15 12 -40
20 -62 20 -33 0 -36 -2 -30 -22 9 -30 53 -67 88 -75 24 -5 27 -10 27 -44 0
-32 4 -39 19 -39 16 0 20 8 23 37 3 32 7 39 35 46 17 5 44 23 60 39 24 25 28
37 28 87 0 71 -21 106 -81 132 l-44 20 0 54 c0 30 4 56 9 59 5 3 20 -3 34 -14
33 -26 67 -26 67 0 0 24 -34 57 -77 72 -28 10 -33 17 -33 45 0 26 -4 33 -20
33 -16 0 -20 -7 -20 -33z"/>
</g>
</svg>
